<?xml version="1.0" encoding="utf-8"?>
<!-- Generator: Adobe Illustrator 22.1.0, SVG Export Plug-In . SVG Version: 6.00 Build 0)  -->
<svg version="1.1" id="Layer_1" xmlns="http://www.w3.org/2000/svg" xmlns:xlink="http://www.w3.org/1999/xlink" x="0px" y="0px"
	 viewBox="0 0 711.7 883.4" style="enable-background:new 0 0 711.7 883.4;" xml:space="preserve">
<style type="text/css">
	.st0{fill:#FFFFFF;}
	.st1{fill:#661F26;}
	.st2{fill:#FCD669;}
	.st3{fill:#F6B13A;}
	.st4{fill:#F7952C;}
	.st5{fill:#BC5F46;}
	.st6{fill:#F05755;}
	.st7{fill:#E24647;}
	.st8{fill:#AA3C26;}
	.st9{fill:#9DB73E;}
	.st10{fill:#8DA43C;}
	.st11{fill:#FBC231;}
	.st12{fill:#FCB23A;}
</style>
<g>
	<path class="st0" d="M125.1,883.4c-63.2,0-114.7-51.5-114.7-114.7c0-14,5.2-27.2,14.5-37.3c-4-7.4-6.2-15.7-6.2-24.2
		c0-13.7,5.5-26.6,15.1-36c-1-2.5-1.8-5-2.1-7.6C12.7,654.9,0,635.6,0,614.4c0-20,10.9-38.2,28.3-47.6c0.3-1.1,0.6-2.1,0.9-3.2
		c-6.9-9.3-10.6-20.5-10.6-32.1c0-8.7,2-17.1,6-24.7c-1.2-1.2-2.4-2.4-3.5-3.7c-10.4-12.1-15-28.2-12.6-44.1
		c11.2-73.2,52.6-140.3,116.6-189.1c63.8-48.6,145.7-75.4,230.7-75.4s166.9,26.8,230.7,75.4C650.6,318.6,692,385.8,703.2,459
		c2.4,15.9-2.2,31.9-12.6,44.1c-1.1,1.3-2.3,2.5-3.5,3.7c3.9,7.6,6,16,6,24.7c0,9.9-2.7,19.6-7.8,28c1.6,3.3,2.7,6.8,3.3,10.5
		c14.4,10.1,23.2,26.6,23.2,44.4c0,20.9-12.4,40.1-31,48.9c-0.2,3.1-0.7,6.2-1.6,9.2c8.9,9.3,13.9,21.6,13.9,34.8
		c0,8.5-2.2,16.8-6.2,24.2c9.3,10.1,14.5,23.3,14.5,37.3c0,63.2-51.5,114.7-114.7,114.7H125.1z"/>
	<path class="st1" d="M673.8,732.9c5.8-7,9.2-16,9.2-25.7c0-13.1-6.2-24.7-15.9-32.1c3.2-5.5,4.3-12,3.2-18.5
		c18.1-5.5,31.3-22.4,31.3-42.3c0-16.6-9.2-31-22.7-38.6c0-6.5-2.2-12.3-5.7-16.6c6.1-7.6,9.8-17.2,9.8-27.7
		c0-10.1-3.4-19.5-9.2-26.9c3.3-2.2,6.4-4.9,9.1-8c8.5-9.9,12.3-23.1,10.3-36.1c-10.8-70.6-50.8-135.4-112.8-182.7
		c-62.1-47.3-141.9-73.3-224.6-73.3s-162.6,26-224.6,73.3c-62,47.2-102,112.1-112.8,182.6c-2,13,1.8,26.1,10.3,36.1
		c2.7,3.1,5.8,5.8,9.1,8c-5.7,7.5-9.2,16.8-9.2,26.9c0,11.8,4.7,22.6,12.3,30.5c-2,3.3-3.2,7.3-3.6,11.6C21.3,580.2,10,596,10,614.4
		c0,19.9,13.3,36.8,31.4,42.3c-0.7,5.4,0.9,10.9,4.5,15.9c0.2,0.3,0.5,0.7,0.8,1c-10.9,7.3-18.1,19.7-18.1,33.7
		c0,9.8,3.5,18.7,9.2,25.7c-10.6,8.3-17.5,21.3-17.5,35.8c0,57.7,47,104.7,104.7,104.7h461.6c57.7,0,104.7-47,104.7-104.7
		C691.3,754.2,684.5,741.2,673.8,732.9z"/>
	<path class="st0" d="M578.4,247.7c-4.7,0-9.2-1.5-13.1-4.3C508.5,202,444.1,181,373.9,181c-2.1,0-4.1,0-6.2,0.1l-0.4,0
		c-11.8,0-21.5-9.2-22.2-21l-7.4-133.7c-0.5-9,4.4-17.3,12.5-21.3c3-1.4,6.3-2.2,9.7-2.2c5.5,0,10.7,2,14.8,5.6l62.5,55.5l75.7-59.3
		c3.9-3.1,8.8-4.7,13.7-4.7c2.3,0,4.5,0.3,6.7,1c7,2.2,12.5,7.7,14.6,14.7l27.9,92l83-9.6c0.8-0.1,1.7-0.1,2.6-0.1
		c8,0,15.5,4.4,19.4,11.4c4.4,7.9,3.6,17.5-1.9,24.6l-82.8,105.2C591.7,244.6,585.3,247.7,578.4,247.7z"/>
	<path class="st1" d="M355.1,159.5c0.4,6.5,5.7,11.5,12.2,11.5c0.1,0,0.1,0,0.2,0c74.7-1.3,143.3,20.3,203.7,64.3
		c2.2,1.6,4.7,2.3,7.2,2.3c3.6,0,7.2-1.6,9.6-4.7l82.8-105.2c3.1-3.9,3.5-9.2,1.1-13.5c-2.4-4.3-7.2-6.7-12.1-6.2l-91.3,10.6
		l-30.3-100c-1.2-3.9-4.2-6.9-8-8.1c-3.8-1.2-8-0.5-11.2,2l-82.2,64.5L368,16c-3.7-3.3-9-4-13.4-1.9c-4.4,2.1-7.2,6.8-6.9,11.7
		L355.1,159.5z"/>
</g>
<g>
	<g>
		<g>
			<g>
				<g>
					<g id="XMLID_373_">
						<path class="st1" d="M638.9,575.6H72.8c-24.4,0-44.2-19.8-44.2-44.2c0-24.4,19.8-44.2,44.2-44.2h566.1
							c24.4,0,44.2,19.8,44.2,44.2C683.1,555.8,663.3,575.6,638.9,575.6z M72.8,511.7c-10.9,0-19.7,8.9-19.7,19.7
							c0,10.9,8.9,19.7,19.7,19.7h566.1c10.9,0,19.7-8.9,19.7-19.7c0-10.9-8.9-19.7-19.7-19.7H72.8z"/>
					</g>
					<g id="XMLID_372_">
						<path class="st1" d="M657.5,658.6H54.2c-24.4,0-44.2-19.8-44.2-44.2c0-24.4,19.8-44.2,44.2-44.2h603.3
							c24.4,0,44.2,19.8,44.2,44.2C701.7,638.7,681.9,658.6,657.5,658.6z M54.2,594.6c-10.9,0-19.7,8.9-19.7,19.7
							c0,10.9,8.9,19.7,19.7,19.7h603.3c10.9,0,19.7-8.9,19.7-19.7c0-10.9-8.9-19.7-19.7-19.7H54.2z"/>
					</g>
					<g id="XMLID_371_">
						<path class="st1" d="M459.5,739.3c-15.4,0-23.8-7.4-32.9-17.2c-5.8-6.2-11.7-12.6-23.2-18.4c-23.5-11.8-51.7-4.5-78.9,2.5
							c-8.3,2.1-16.9,4.4-25.1,5.9c-26.1,5-34.2,2.3-45.2-2.7c-4-1.8-8.2-3.7-15.3-5.4c-9.2-2.2-11.7,0.1-19.2,7.1
							c-5.4,5-12.2,11.3-22.7,15.7c-27.2,11.3-43.4-5.5-55.1-17.8c-1.5-1.5-3-3.1-4.5-4.6c-6.2-6.2-35.4-13-59-15.6
							c-10.3-0.3-25-6.3-32.4-16.3c-4.4-6-5.8-12.9-3.8-19.4c3.4-11.2,14.3-19,26.3-19h574.8c11.5,0,22.8,8,26.2,18.7l0,0
							c3.5,11.1,0.1,22.8-8.9,30c-5.4,5-15.9,13.7-27.6,18.7c-19.7,8.6-54.9,4.7-79-1.2c-9.3-2.3-15.4,1.9-28.4,11.4
							c-11,8.1-24.8,18.2-45.1,24.1C472.2,738.2,465.3,739.3,459.5,739.3z M374.7,673c13.3,0,26.7,2.4,39.6,8.8
							c15.5,7.7,24,16.9,30.2,23.6c8.8,9.5,11.2,12,29.1,6.9c16.1-4.6,27-12.6,37.4-20.3c13.8-10.1,28-20.5,48.7-15.5
							c28.8,7,54.2,6.5,63.5,2.5c9-3.9,17.8-11.5,21.1-14.6l0.8-0.7c0.6-0.5,1.5-1.5,1-3.5c-0.4-0.7-2.1-1.8-2.9-1.8H68.5
							c-0.7,0-1.4,0.2-1.9,0.5c2.7,2.4,8.9,5.3,12.5,5.3l1.3,0.1c13.5,1.4,58.9,7.3,74.2,22.7c1.7,1.7,3.3,3.3,4.9,5
							c12.1,12.6,16.9,16.8,28.1,12.1c6.4-2.7,10.8-6.7,15.4-11c8.8-8.2,19.7-18.3,41.7-13c9.3,2.3,14.9,4.8,19.5,6.9
							c7.3,3.3,10.7,4.8,30.5,1c7.5-1.4,15.3-3.5,23.7-5.6C336.2,678,355.4,673,374.7,673z M646.2,660.4L646.2,660.4L646.2,660.4z
							 M646.1,660.2C646.1,660.2,646.1,660.2,646.1,660.2C646.1,660.2,646.1,660.2,646.1,660.2L646.1,660.2z"/>
					</g>
					<g id="XMLID_370_">
						<path class="st1" d="M496,669.4c-5,0-10-0.8-14.9-2.6c-44.7-15.6-124.5-42.5-168.1-57.2c-17.9-6-36.6-9.1-55.5-9.1H58.9
							c-12.2,0-21.7-10.9-21.7-24.7c0-13.9,9.5-24.7,21.7-24.7h598.4c12.2,0,21.7,10.9,21.7,24.7c0,13.9-9.5,24.7-21.7,24.7h-2.8
							c-19.8,0-39.3,5.3-56.4,15.5l-78.6,46.7C512.1,667.2,504.1,669.4,496,669.4z M61.7,576.2h195.8c21.5,0,42.8,3.5,63.2,10.3
							c43.7,14.7,123.6,41.6,168.4,57.3c6,2.1,12.1,1.4,17.9-2l78.6-46.7c20.8-12.4,44.6-18.9,68.8-18.9h0.1c0-0.1,0-0.2,0-0.3
							c0-0.1,0-0.2,0-0.3H61.7c0,0.1,0,0.2,0,0.3C61.6,576,61.7,576.1,61.7,576.2z M657.3,575.6L657.3,575.6L657.3,575.6z"/>
					</g>
				</g>
				<g id="XMLID_368_">
					<g id="XMLID_369_">
						<path class="st1" d="M333,747.8H69.2c-22.4,0-40.5-18.2-40.5-40.5c0-22.4,18.2-40.5,40.5-40.5H333c22.4,0,40.5,18.2,40.5,40.5
							C373.5,729.6,355.4,747.8,333,747.8z M69.2,691.1c-8.9,0-16.1,7.2-16.1,16.1s7.2,16.1,16.1,16.1H333c8.9,0,16.1-7.2,16.1-16.1
							s-7.2-16.1-16.1-16.1H69.2z"/>
					</g>
				</g>
				<g id="XMLID_365_">
					<g id="XMLID_366_">
						<g id="XMLID_367_">
							<path class="st1" d="M642.5,747.8H378.7c-22.4,0-40.5-18.2-40.5-40.5c0-22.4,18.2-40.5,40.5-40.5h263.8
								c22.4,0,40.5,18.2,40.5,40.5C683,729.6,664.8,747.8,642.5,747.8z M378.7,691.1c-8.9,0-16.1,7.2-16.1,16.1s7.2,16.1,16.1,16.1
								h263.8c8.9,0,16.1-7.2,16.1-16.1s-7.2-16.1-16.1-16.1H378.7z"/>
						</g>
					</g>
				</g>
			</g>
			<g id="XMLID_5_">
				<g id="XMLID_364_">
					<rect x="292.9" y="704.3" class="st2" width="115.8" height="31.2"/>
				</g>
				<g id="XMLID_357_">
					<g id="XMLID_361_">
						<g id="XMLID_363_">
							<path class="st3" d="M65.8,735.5h580.2c18.3,0,33.2,14.8,33.2,33.2l0,0c0,51.1-41.4,92.5-92.5,92.5H125.1
								c-51.1,0-92.5-41.4-92.5-92.5l0,0C32.6,750.4,47.5,735.5,65.8,735.5z"/>
						</g>
						<g id="XMLID_362_">
							<path class="st4" d="M645.9,735.5h-53.4c2.5,22.8-0.8,65.4-55.9,79c-76.7,18.9-413.3,26.7-489.8,3.3l0,0
								c16.4,26,45.3,43.3,78.3,43.3h461.6c51.1,0,92.5-41.4,92.5-92.5v0C679.1,750.4,664.2,735.5,645.9,735.5z"/>
						</g>
					</g>
					<g id="XMLID_360_">
						<path class="st2" d="M132.3,785.7H98c-10.6,0-10.6,16.5,0,16.5h34.3C142.9,802.2,143,785.7,132.3,785.7z"/>
					</g>
					<g id="XMLID_359_">
						<path class="st2" d="M369.5,762.8h-19.8c-10.6,0-10.6,16.5,0,16.5h19.8C380.2,779.3,380.2,762.8,369.5,762.8z"/>
					</g>
					<g id="XMLID_358_">
						<path class="st2" d="M571.4,807.5h-51c-10.6,0-10.6,16.5,0,16.5h51C582,824.1,582,807.5,571.4,807.5z"/>
					</g>
				</g>
				<g id="XMLID_355_">
					<path class="st5" d="M638.9,563.4H72.8c-17.6,0-32-14.4-32-32l0,0c0-17.6,14.4-32,32-32h566.1c17.6,0,32,14.4,32,32l0,0
						C670.9,549,656.5,563.4,638.9,563.4z"/>
				</g>
				<g id="XMLID_353_">
					<path class="st6" d="M657.5,646.3H54.2c-17.6,0-32-14.4-32-32l0,0c0-17.6,14.4-32,32-32h603.3c17.6,0,32,14.4,32,32l0,0
						C689.5,631.9,675.1,646.3,657.5,646.3z"/>
				</g>
				<g id="XMLID_352_">
					<path class="st7" d="M646.7,582.4H512.1c-6.6,1.5-11.3,2.4-13.4,2.4l-24.6,32.8l0,0c11.7,2.9,9.1,15.6-3.3,15.8
						c-158.8,1.8-442-4.3-443.8-4.3c7.1,10.2,21.5,17.2,38,17.2h526.4h55.3c1.3,0,2.7-0.1,4-0.1c0.2,0,0.4,0,0.6,0
						c1.1-0.1,2.2-0.2,3.3-0.4c0.4-0.1,0.8-0.1,1.2-0.2c0.9-0.1,1.8-0.3,2.7-0.5c0.6-0.1,1.2-0.3,1.8-0.4c0.1,0,0.2-0.1,0.3-0.1
						c16.8-4.3,28.9-16,28.9-29.8v-0.9C689.5,596.6,670.2,582.4,646.7,582.4z"/>
				</g>
				<g id="XMLID_350_">
					<path class="st8" d="M670.9,531.5c0-17.6-14.4-32-32-32h-38.1c7.5,7.3,15.6,18.6,12.1,32c-5.7,21.8-460.5,22.8-571.6,4.5
						c2.2,15.5,15.6,27.5,31.6,27.5h566.1C656.5,563.4,670.9,549,670.9,531.5z"/>
				</g>
				<g id="XMLID_333_">
					<g id="XMLID_347_">
						<g id="XMLID_348_">
							<path class="st5" d="M333,735.5H69.2c-15.6,0-28.3-12.7-28.3-28.3l0,0c0-15.6,12.7-28.3,28.3-28.3H333
								c15.6,0,28.3,12.7,28.3,28.3l0,0C361.3,722.8,348.6,735.5,333,735.5z"/>
						</g>
					</g>
					<g id="XMLID_345_">
						<path class="st8" d="M333,678.9h-6.6c2.6,8.4,2.3,24.2-30.5,34.4c-46.5,14.6-220.4,6.9-251,0c-1-0.2-2.2-0.4-3.5-0.6
							c2.6,12.9,14.1,22.8,27.8,22.8H333c15.6,0,28.3-12.7,28.3-28.3l0,0C361.3,691.7,348.6,678.9,333,678.9z"/>
					</g>
					<g id="XMLID_343_">
						<g id="XMLID_344_">
							<path class="st1" d="M333,743.1H69.2c-19.8,0-35.8-16.1-35.8-35.8c0-19.8,16.1-35.8,35.8-35.8H333
								c19.8,0,35.8,16.1,35.8,35.8C368.8,727,352.8,743.1,333,743.1z M69.2,686.4c-11.5,0-20.8,9.3-20.8,20.8S57.7,728,69.2,728
								H333c11.5,0,20.8-9.3,20.8-20.8s-9.3-20.8-20.8-20.8H69.2z"/>
						</g>
					</g>
					<g id="XMLID_339_">
						<g id="XMLID_340_">
							<g id="XMLID_341_">
								<path class="st5" d="M642.5,735.5H378.7c-15.6,0-28.3-12.7-28.3-28.3l0,0c0-15.6,12.7-28.3,28.3-28.3h263.8
									c15.6,0,28.3,12.7,28.3,28.3l0,0C670.8,722.8,658.1,735.5,642.5,735.5z"/>
							</g>
						</g>
					</g>
					<g id="XMLID_337_">
						<path class="st8" d="M642.5,678.9h-6.6c2.6,8.4,2.3,24.2-30.5,34.4c-46.5,14.6-220.4,6.9-251,0c-1-0.2-2.2-0.4-3.5-0.6
							c2.6,12.9,14.1,22.8,27.8,22.8h263.8c15.6,0,28.3-12.7,28.3-28.3l0,0C670.8,691.7,658.1,678.9,642.5,678.9z"/>
					</g>
					<g id="XMLID_334_">
						<g id="XMLID_335_">
							<g id="XMLID_336_">
								<path class="st1" d="M642.5,743.1H378.7c-19.8,0-35.8-16.1-35.8-35.8c0-19.8,16.1-35.8,35.8-35.8h263.8
									c19.8,0,35.8,16.1,35.8,35.8C678.3,727,662.2,743.1,642.5,743.1z M378.7,686.4c-11.5,0-20.8,9.3-20.8,20.8
									s9.3,20.8,20.8,20.8h263.8c11.5,0,20.8-9.3,20.8-20.8s-9.3-20.8-20.8-20.8H378.7z"/>
							</g>
						</g>
					</g>
				</g>
				<g id="XMLID_331_">
					<path class="st9" d="M53.1,500.8c0-6.9,6.8-12.4,15.2-12.4h575.1c8.4,0,15.2,5.6,15.2,12.4c0,6.9-6.8,12.4-15.2,12.4
						c0,0-71.6,5.7-85.1,16.7c-13.5,11.1-14.1,18.6-36.2,11.1c-22.1-7.5-27-20.1-52.2-15.1c-25.2,5-20.3,12.1-55.3,6.5
						c-35-5.5-76.2-20.6-111.8-6c-35.6,14.6-27.6,35.2-68.2,25.6c-40.5-9.6-52.2-34.7-79.8-29.2c-27.6,5.5-57.1,6.5-71.2,1.5
						c-10.5-3.7-20.2-10.5-24.5-13.8C55.5,508.4,53.1,504.9,53.1,500.8z"/>
				</g>
				<g id="XMLID_330_">
					<path class="st10" d="M643.4,513.3c8.4,0,15.2-5.6,15.2-12.4c0-6.9-6.8-12.4-15.2-12.4h-61.3c-5.5,9.6-17.9,26.1-39.5,27.1
						c-30.5,1.4-59.1-11.8-106.8,0c-20,4.9-34.3,9.1-46.3,12.1c8.6,1.8,17,3.6,25.1,4.9c35,5.5,30.1-1.5,55.3-6.5
						c25.2-5,30.1,7.5,52.2,15.1c22.1,7.5,22.7,0,36.2-11.1C571.8,518.9,643.4,513.3,643.4,513.3z"/>
				</g>
				<g id="XMLID_329_">
					<path class="st1" d="M252.1,562.1c-5.3,0-11.5-0.8-19.2-2.6c-19.4-4.6-32.7-12.6-43.4-19c-12.6-7.6-20.9-12.6-33.2-10.1
						c-25.1,5-58.1,7.3-75.2,1.2c-11.1-3.9-21.1-10.8-26.3-14.7c-5.7-3.7-9.2-9.7-9.2-16c0-11,10.2-19.9,22.7-19.9h575.1
						c12.5,0,22.7,8.9,22.7,19.9c0,10.9-10,19.8-22.4,19.9c-28.8,2.3-72.6,8.5-80.7,15c-2.5,2-4.4,3.9-6.3,5.7
						c-9.3,8.8-16.1,13.8-37.1,6.7c-8.1-2.8-14-6.1-19.2-9c-9.4-5.3-15.1-8.6-29.1-5.8c-7.6,1.5-12.2,3.2-16.3,4.7
						c-10.6,3.9-17.2,5.7-41.7,1.9c-8.1-1.3-16.2-3-24.8-4.8c-28.3-6-57.5-12.1-83-1.7c-12.3,5-18.8,10.8-24.6,15.9
						C272.5,556.9,265.4,562.1,252.1,562.1z M162.4,514.6c13.4,0,23.9,6.3,34.8,12.9c10.3,6.2,22,13.2,39.1,17.3
						c21.4,5,25.6,1.3,34.7-6.8c6.3-5.6,14.2-12.5,28.9-18.5c29.8-12.2,62.7-5.2,91.8,0.9c8.4,1.8,16.3,3.4,24,4.7
						c21.7,3.4,26.1,1.8,34.1-1.1c4.4-1.6,9.8-3.6,18.5-5.3c19.4-3.9,29.2,1.6,39.5,7.4c4.8,2.7,9.9,5.6,16.6,7.9
						c13.5,4.6,14.9,3.2,21.9-3.4c2-1.9,4.3-4,7.1-6.4c14.6-11.9,76.9-17.4,89.3-18.4l0.6,0c4.4,0,7.6-2.6,7.6-4.9s-3.3-4.9-7.6-4.9
						H68.3c-4.4,0-7.6,2.6-7.6,4.9c0,1.7,1.7,3,2.4,3.5l0.5,0.4c3.5,2.7,12.8,9.3,22.5,12.7c12.3,4.4,40,3.7,67.2-1.8
						C156.5,514.9,159.6,514.6,162.4,514.6z"/>
				</g>
				<g id="XMLID_328_">
					<path class="st1" d="M586.6,873.4H125.1c-57.7,0-104.7-47-104.7-104.7c0-25,20.4-45.4,45.4-45.4h580.2
						c25,0,45.4,20.4,45.4,45.4C691.3,826.4,644.4,873.4,586.6,873.4z M65.8,747.8c-11.5,0-20.9,9.4-20.9,20.9
						c0,44.2,36,80.2,80.2,80.2h461.6c44.2,0,80.2-36,80.2-80.2c0-11.5-9.4-20.9-20.9-20.9H65.8z"/>
				</g>
				<g id="XMLID_171_">
					<g id="XMLID_236_">
						<g id="XMLID_327_">
							<path class="st3" d="M61.5,499.5c-19.2,0-34-17.6-31-37.2c21.1-138.6,158.7-245.6,325.4-245.6c166.6,0,304.2,107,325.4,245.6
								c3,19.6-11.9,37.2-31,37.2H61.5z"/>
						</g>
						<g id="XMLID_254_">
							<path class="st4" d="M681.2,462.3c-17.6-115.3-115.7-208.6-244.1-236.8c0,0,119.8,75,84.2,192.9
								C490,521.9,120.1,474.5,30.6,461.4c0,0.3-0.1,0.6-0.1,0.9c-3,19.6,11.9,37.2,31,37.2h588.6
								C669.3,499.5,684.2,481.9,681.2,462.3z"/>
						</g>
					</g>
					<g id="XMLID_234_">
						<path class="st2" d="M160.4,343.6h-23.9c-10.6,0-10.6,16.5,0,16.5h23.9C171,360.2,171,343.6,160.4,343.6z"/>
					</g>
					<g id="XMLID_231_">
						<path class="st2" d="M290.5,290.6h-47.9c-10.6,0-10.6,16.5,0,16.5h47.9C301.1,307.1,301.1,290.6,290.5,290.6z"/>
					</g>
					<g id="XMLID_229_">
						<path class="st2" d="M394.5,344.7h-20.8c-10.6,0-10.6,16.5,0,16.5h20.8C405.1,361.2,405.2,344.7,394.5,344.7z"/>
					</g>
					<g id="XMLID_226_">
						<path class="st2" d="M170.8,432.1h-29.1c-10.6,0-10.6,16.5,0,16.5h29.1C181.4,448.6,181.5,432.1,170.8,432.1z"/>
					</g>
					<g id="XMLID_221_">
						<path class="st2" d="M435.1,412.3h-10.4c-4.3,0-8.5,3.8-8.3,8.3c0.2,4.5,3.6,8.3,8.3,8.3h10.4c4.3,0,8.5-3.8,8.3-8.3
							C443.2,416.1,439.7,412.3,435.1,412.3z"/>
					</g>
					<g id="XMLID_217_">
						<path class="st2" d="M541.2,303.1h-54.1c-10.6,0-10.6,16.5,0,16.5h54.1C551.9,319.6,551.9,303.1,541.2,303.1z"/>
					</g>
					<g id="XMLID_211_">
						<path class="st2" d="M598.5,444.6h-26c-10.6,0-10.6,16.5,0,16.5h26C609.1,461.1,609.1,444.6,598.5,444.6z"/>
					</g>
					<g id="XMLID_183_">
						<path class="st2" d="M279,404h-12.5c-4.3,0-8.5,3.8-8.3,8.3c0.2,4.5,3.6,8.3,8.3,8.3H279c4.3,0,8.5-3.8,8.3-8.3
							C287.1,407.8,283.7,404,279,404z"/>
					</g>
					<g id="XMLID_175_">
						<path class="st2" d="M398.7,245.8h-18.7c-10.6,0-10.6,16.5,0,16.5h18.7C409.3,262.4,409.3,245.8,398.7,245.8z"/>
					</g>
					<g id="XMLID_173_">
						<path class="st1" d="M650.2,511.7H61.5c-12.6,0-24.5-5.5-32.8-15.2c-8.5-9.9-12.3-23.1-10.3-36.1
							C29.2,389.9,69.2,325,131.2,277.8c62.1-47.3,141.9-73.3,224.6-73.3s162.6,26,224.6,73.3c62,47.2,102,112.1,112.8,182.7
							c2,13-1.8,26.1-10.3,36.1C674.7,506.2,662.7,511.7,650.2,511.7z M355.9,228.9C197.7,228.9,63,330.1,42.6,464.1
							c-0.9,5.9,0.8,11.9,4.7,16.4c3.7,4.3,8.8,6.7,14.3,6.7h588.6c5.5,0,10.6-2.4,14.3-6.7c3.9-4.5,5.6-10.5,4.7-16.4
							C648.7,330.1,514,228.9,355.9,228.9z"/>
					</g>
				</g>
				<g id="XMLID_169_">
					<path class="st1" d="M638.9,570.9H72.8c-21.8,0-39.5-17.7-39.5-39.5c0-21.8,17.7-39.5,39.5-39.5h566.1
						c21.8,0,39.5,17.7,39.5,39.5C678.4,553.2,660.7,570.9,638.9,570.9z M72.8,507c-13.5,0-24.4,11-24.4,24.4
						c0,13.5,11,24.4,24.4,24.4h566.1c13.5,0,24.4-11,24.4-24.4c0-13.5-11-24.4-24.4-24.4H72.8z"/>
				</g>
				<g id="XMLID_134_">
					<path class="st1" d="M657.5,653.9H54.2c-21.8,0-39.5-17.7-39.5-39.5c0-21.8,17.7-39.5,39.5-39.5h603.3
						c21.8,0,39.5,17.7,39.5,39.5C697,636.1,679.3,653.9,657.5,653.9z M54.2,589.9c-13.5,0-24.4,11-24.4,24.4
						c0,13.5,11,24.4,24.4,24.4h603.3c13.5,0,24.4-11,24.4-24.4c0-13.5-11-24.4-24.4-24.4H54.2z"/>
				</g>
				<g id="XMLID_15_">
					<path class="st9" d="M657.8,656.5c-1.8-5.7-8.5-10.2-14.5-10.2H68.5c-6.6,0-12.7,4.1-14.6,10.4c-3.2,10.4,15.3,19.9,25.3,19.9
						c0,0,53.4,5.7,66.9,19.2c13.5,13.5,24.2,29,46.3,19.8s24.3-29.6,49.5-23.4c25.2,6.1,20.3,14.7,55.3,8
						c35-6.8,76.2-25.2,111.8-7.4c35.6,17.8,27.6,43,68.2,31.3c40.5-11.7,52.2-42.4,79.8-35.6c27.6,6.8,57.1,8,71.2,1.8
						c10.5-4.5,20.2-12.8,24.5-16.8C657.4,669.8,660,663.4,657.8,656.5z"/>
				</g>
				<g id="XMLID_12_">
					<path class="st10" d="M643.3,646.3h-64c-8.9,12.4-30.2,29.3-80.4,28.9c-79.1-0.7-126.2-20-185.2,11.5
						c-12.9,6.9-24.8,12-35.6,15.9c4.7-0.1,10.7-0.9,19-2.4c35-6.8,76.2-25.2,111.8-7.4c35.6,17.8,27.6,43,68.2,31.3
						c40.5-11.7,52.2-42.4,79.8-35.6c27.6,6.8,57.1,8,71.2,1.8c10.5-4.5,20.2-12.8,24.5-16.8c4.8-3.7,7.3-10.1,5.1-17
						C656,650.9,649.2,646.3,643.3,646.3z"/>
				</g>
				<g id="XMLID_11_">
					<path class="st1" d="M459.4,734.6c-13.5,0-20.7-6.4-29.4-15.7c-5.8-6.2-12.3-13.3-24.6-19.4c-25.1-12.6-54.1-5.1-82.1,2.1
						c-8.6,2.2-16.7,4.3-24.8,5.9c-24.8,4.8-31.9,2.3-42.4-2.4c-4-1.8-8.6-3.9-16.1-5.7c-11.6-2.8-15.9,1.1-23.6,8.3
						c-5.2,4.8-11.6,10.7-21.3,14.8c-24.2,10.1-38.5-4.7-49.9-16.7c-1.5-1.6-3-3.2-4.6-4.7c-8.4-8.4-42.3-14.9-62-17
						c-9-0.2-22.5-5.7-29-14.4c-3.5-4.8-4.6-10.2-3.1-15.2c2.8-9.2,11.8-15.7,21.8-15.7h574.8c9.4,0,18.9,6.8,21.7,15.4v0
						c3,9.3,0,19-7.4,25c-5.2,4.7-15.3,13.2-26.4,18c-18.6,8.1-52.6,4.3-76-1.4c-11.3-2.8-18.8,2.3-32.3,12.2
						c-10.7,7.9-24.1,17.7-43.6,23.3C471.2,733.6,464.8,734.6,459.4,734.6z M374.7,677.7c12.7,0,25.4,2.2,37.6,8.3
						c14.7,7.4,22.6,15.8,28.9,22.6c9.3,10,13.1,14.2,33.8,8.2c16.9-4.9,28.6-13.4,38.9-21c13.5-9.9,26.2-19.3,44.8-14.7
						c26.6,6.5,54.5,7.4,66.5,2.3c9.6-4.2,18.9-12.2,22.4-15.5l0.5-0.4c2.1-1.6,3.8-4.7,2.6-8.7l0,0c-0.8-2.4-4.5-5-7.3-5H68.5
						c-3.5,0-6.5,2.1-7.4,5.1c-0.2,0.5,0.5,1.5,0.8,1.9c3.3,4.4,12.4,8.3,17.3,8.3l0.8,0c5.7,0.6,56.5,6.4,71.4,21.3
						c1.6,1.6,3.2,3.3,4.8,4.9c12.2,12.7,19.2,19.1,33.3,13.2c7.2-3,12.1-7.5,16.8-11.9c8.4-7.8,17.9-16.6,37.4-11.9
						c8.8,2.2,14.3,4.6,18.7,6.6c8,3.6,12.1,5.4,33.4,1.3c7.6-1.5,15.6-3.5,23.9-5.7C337.1,682.6,355.9,677.7,374.7,677.7z"/>
				</g>
				<g id="XMLID_8_">
					<path class="st2" d="M657.3,563.4H58.9c-5.2,0-9.5,5.6-9.5,12.5c0,6.9,4.2,12.5,9.5,12.5h229c0,0,134.2,44.9,197.2,66.9
						c9.4,3.3,19.3,2.2,28.2-3.1l107.5-63.8h36.5c5.2,0,9.5-5.6,9.5-12.5C666.8,569,662.5,563.4,657.3,563.4z"/>
				</g>
				<g id="XMLID_7_">
					<path class="st11" d="M657.3,563.4H544.5c-3.5,21.2-15.7,64.5-56.3,68.7c-54.1,5.6-116.2-15.4-116.2-15.4l0,0
						c39.4,13.3,83.9,28.4,113.2,38.7c9.4,3.3,19.3,2.2,28.2-3.1l107.5-63.8h36.5c5.2,0,9.5-5.6,9.5-12.5
						C666.8,569,662.5,563.4,657.3,563.4z"/>
				</g>
				<g id="XMLID_6_">
					<path class="st1" d="M495.9,664.7c-4.5,0-8.9-0.8-13.3-2.3c-44.7-15.6-124.6-42.5-168.2-57.2c-18.4-6.2-37.5-9.3-56.9-9.3H58.9
						c-9.5,0-17-8.8-17-20c0-11.2,7.5-20,17-20h598.4c9.5,0,17,8.8,17,20c0,11.2-7.5,20-17,20h-2.8c-20.7,0-41,5.6-58.8,16.1
						l-78.6,46.7C510.5,662.7,503.2,664.7,495.9,664.7z M257.5,580.9c21,0,41.8,3.4,61.7,10.1c43.7,14.6,123.6,41.6,168.4,57.2
						c7.3,2.6,14.9,1.7,21.8-2.4l78.6-46.7c20.1-11.9,43.1-18.2,66.4-18.2h2.8c0.5-0.2,2-1.9,2-5c0-3-1.4-4.8-2-5H58.9
						c-0.5,0.2-2,1.9-2,5c0,3,1.5,4.8,2,5L257.5,580.9z M657.3,570.9L657.3,570.9L657.3,570.9z"/>
				</g>
			</g>
		</g>
		<g>
			<path class="st12" d="M526.5,22.2L559.8,132l101.5-11.8l-82.8,105.2c-62.9-45.8-133.3-68-211.1-66.6l-7.4-133.7L436.2,93
				L526.5,22.2z"/>
		</g>
		<g>
			<path class="st1" d="M578.4,237.7c-2.5,0-5-0.8-7.2-2.3c-60.4-44-129-65.6-203.7-64.3c-0.1,0-0.1,0-0.2,0
				c-6.5,0-11.8-5.1-12.2-11.5l-7.4-133.7c-0.3-4.9,2.4-9.5,6.9-11.7c4.4-2.1,9.7-1.4,13.4,1.9l68.7,61.1L519,12.6
				c3.2-2.5,7.4-3.2,11.2-2c3.8,1.2,6.8,4.2,8,8.1l30.3,100l91.3-10.6c4.9-0.6,9.7,1.9,12.1,6.2c2.4,4.3,2,9.6-1.1,13.5L588,233
				C585.6,236.1,582.1,237.7,578.4,237.7z M378.9,146.6c71.7,0.9,137.9,21.8,197.1,62.2l57.5-73l-72.3,8.4
				c-5.9,0.7-11.4-2.9-13.1-8.6L520,42.9l-76.2,59.8c-4.7,3.6-11.3,3.4-15.7-0.5l-54.4-48.3L378.9,146.6z"/>
		</g>
	</g>
</g>
</svg>
